<svg width="24" height="24" viewBox="0 0 24 24" fill="none" xmlns="http://www.w3.org/2000/svg">
<path d="M0 34.2v6.3L46 66l46 25.5v37l-19.8 9.9-19.8 9.8-18.2-9.7-18.2-9.7v-9.4c0-5.2.1-9.4.3-9.4.6 0 41.2 9.1 43 9.6 1.6.5 1.8-.2 1.5-7.7l-.3-8.3-30-7.1-30-7.2-.3 24.1c-.1 13.2.1 24.3.6 24.8.4.4 12.2 7.1 26.2 14.7l25.5 14 23.7-12.2 23.8-12.1 23.8 12.1 23.7 12.2 25.5-14c14-7.6 25.8-14.3 26.2-14.7.5-.5.7-11.6.6-24.8l-.3-24.1-30 7.2-30 7.1-.3 8.3c-.3 7.5-.1 8.2 1.5 7.7 1.8-.5 42.4-9.6 43-9.6.2 0 .3 4.2.3 9.4v9.4l-18.2 9.7-18.2 9.7-19.8-9.8-19.8-9.9v-37L154 66l46-25.5v-6.3c0-3.4-.3-6.2-.6-6.2S177 38.4 150.2 51c-26.8 12.7-49.4 23-50.2 23-.8 0-23.4-10.3-50.2-23C23 38.4.9 28 .6 28c-.3 0-.6 2.8-.6 6.2z"/>
</svg>